<svg xmlns="http://www.w3.org/2000/svg" viewBox="0 260 340 250" width="256" height="192">
  <path fill="#f2755f" d="M 124.644531 340.464844 C 148.625 340.464844 168.128906 359.949219 168.128906 383.90625 C 168.128906 393.601562 164.898438 402.542969 159.484375 409.769531 L 305.925781 409.769531 C 305.925781 366.910156 271.140625 332.15625 228.230469 332.15625 L 124.644531 332.15625 Z M 124.644531 340.464844 " fill-opacity="1" fill-rule="nonzero"/>
  <path fill="#003a51" d="M 143.355469 383.90625 C 143.355469 384.515625 143.324219 385.128906 143.265625 385.738281 C 143.203125 386.347656 143.113281 386.949219 142.996094 387.550781 C 142.875 388.152344 142.726562 388.746094 142.546875 389.332031 C 142.371094 389.917969 142.164062 390.492188 141.929688 391.058594 C 141.695312 391.625 141.433594 392.175781 141.144531 392.714844 C 140.855469 393.253906 140.542969 393.78125 140.199219 394.289062 C 139.859375 394.796875 139.496094 395.289062 139.105469 395.761719 C 138.71875 396.234375 138.308594 396.6875 137.875 397.121094 C 137.441406 397.554688 136.988281 397.964844 136.511719 398.351562 C 136.039062 398.742188 135.546875 399.105469 135.039062 399.445312 C 134.527344 399.785156 134.003906 400.101562 133.464844 400.390625 C 132.921875 400.675781 132.371094 400.9375 131.804688 401.171875 C 131.238281 401.40625 130.660156 401.613281 130.074219 401.792969 C 129.488281 401.96875 128.894531 402.117188 128.292969 402.238281 C 127.691406 402.355469 127.085938 402.445312 126.476562 402.507812 C 125.867188 402.566406 125.257812 402.597656 124.644531 402.597656 C 124.03125 402.597656 123.417969 402.566406 122.808594 402.507812 C 122.199219 402.445312 121.59375 402.355469 120.992188 402.238281 C 120.390625 402.117188 119.796875 401.96875 119.210938 401.792969 C 118.625 401.613281 118.050781 401.40625 117.484375 401.171875 C 116.917969 400.9375 116.363281 400.675781 115.824219 400.390625 C 115.28125 400.101562 114.757812 399.785156 114.246094 399.445312 C 113.738281 399.105469 113.246094 398.742188 112.773438 398.351562 C 112.300781 397.964844 111.847656 397.554688 111.414062 397.121094 C 110.980469 396.6875 110.566406 396.234375 110.179688 395.761719 C 109.789062 395.289062 109.425781 394.796875 109.085938 394.289062 C 108.746094 393.78125 108.429688 393.253906 108.140625 392.714844 C 107.851562 392.175781 107.589844 391.625 107.355469 391.058594 C 107.121094 390.492188 106.914062 389.917969 106.738281 389.332031 C 106.558594 388.746094 106.410156 388.152344 106.292969 387.550781 C 106.171875 386.949219 106.082031 386.347656 106.023438 385.738281 C 105.960938 385.128906 105.933594 384.515625 105.933594 383.90625 C 105.933594 383.292969 105.960938 382.683594 106.023438 382.074219 C 106.082031 381.464844 106.171875 380.859375 106.292969 380.257812 C 106.410156 379.660156 106.558594 379.066406 106.738281 378.480469 C 106.914062 377.894531 107.121094 377.316406 107.355469 376.753906 C 107.589844 376.1875 107.851562 375.632812 108.140625 375.09375 C 108.429688 374.554688 108.746094 374.03125 109.085938 373.519531 C 109.425781 373.011719 109.789062 372.519531 110.179688 372.046875 C 110.566406 371.574219 110.980469 371.121094 111.414062 370.6875 C 111.847656 370.253906 112.300781 369.84375 112.773438 369.457031 C 113.246094 369.066406 113.738281 368.703125 114.246094 368.363281 C 114.757812 368.023438 115.28125 367.710938 115.824219 367.421875 C 116.363281 367.132812 116.917969 366.871094 117.484375 366.636719 C 118.050781 366.402344 118.625 366.195312 119.210938 366.019531 C 119.796875 365.839844 120.390625 365.691406 120.992188 365.574219 C 121.59375 365.453125 122.199219 365.363281 122.808594 365.304688 C 123.417969 365.242188 124.03125 365.214844 124.644531 365.214844 C 125.257812 365.214844 125.867188 365.242188 126.476562 365.304688 C 127.085938 365.363281 127.691406 365.453125 128.292969 365.574219 C 128.894531 365.691406 129.488281 365.839844 130.074219 366.019531 C 130.660156 366.195312 131.238281 366.402344 131.804688 366.636719 C 132.371094 366.871094 132.921875 367.132812 133.464844 367.421875 C 134.003906 367.710938 134.527344 368.023438 135.039062 368.363281 C 135.546875 368.703125 136.039062 369.066406 136.511719 369.457031 C 136.988281 369.84375 137.441406 370.253906 137.875 370.6875 C 138.308594 371.121094 138.71875 371.574219 139.105469 372.046875 C 139.496094 372.519531 139.859375 373.011719 140.199219 373.519531 C 140.542969 374.03125 140.855469 374.554688 141.144531 375.09375 C 141.433594 375.632812 141.695312 376.1875 141.929688 376.753906 C 142.164062 377.316406 142.371094 377.894531 142.546875 378.480469 C 142.726562 379.066406 142.875 379.660156 142.996094 380.257812 C 143.113281 380.859375 143.203125 381.464844 143.265625 382.074219 C 143.324219 382.683594 143.355469 383.292969 143.355469 383.90625 Z M 143.355469 383.90625 " fill-opacity="1" fill-rule="nonzero"/>
  <path fill="#003a51" d="M 212.496094 409.769531 C 208.527344 423.199219 201.507812 435.328125 192.308594 445.421875 C 190.738281 447.152344 188.054688 447.242188 186.414062 445.601562 L 172.574219 431.761719 C 166.6875 425.875 165.472656 416.777344 169.621094 409.558594 C 174.785156 400.578125 177.316406 389.886719 176.195312 378.546875 C 173.753906 353.960938 153.625 334.210938 129 332.214844 C 109.195312 330.589844 91.527344 340.132812 81.484375 355.183594 L 81.429688 355.148438 C 66.109375 379.019531 60.488281 402.214844 60.398438 423.273438 C 60.378906 428.6875 66.882812 431.429688 70.707031 427.605469 L 96.726562 401.585938 C 92.433594 394.839844 90.46875 386.484375 92.128906 377.605469 C 94.636719 364.164062 105.539062 353.457031 119.046875 351.222656 C 141.664062 347.488281 161.023438 366.847656 157.289062 389.464844 C 155.046875 402.949219 144.339844 413.855469 130.902344 416.382812 C 122.023438 418.046875 113.664062 416.078125 106.921875 411.785156 L 68.355469 450.355469 C 66.519531 452.191406 63.574219 452.171875 61.679688 450.382812 C 41.605469 431.367188 30.078125 403.382812 33.671875 371.882812 C 38.652344 329.515625 73.15625 297.796875 115.613281 293.691406 C 150.597656 290.3125 182.070312 306.757812 200.175781 333.113281 L 217.109375 333.113281 C 198.617188 300.191406 163.238281 279.082031 122.75 279.804688 C 64.953125 280.816406 18.027344 329.050781 18.640625 386.890625 C 19.257812 444.867188 66.601562 493.820312 124.644531 493.820312 C 174.152344 493.820312 215.8125 459.667969 227.398438 413.632812 Z M 212.496094 409.769531 " fill-opacity="1" fill-rule="nonzero"/>
</svg>
