<svg xmlns="http://www.w3.org/2000/svg" xmlns:xlink="http://www.w3.org/1999/xlink" width="1792" zoomAndPan="magnify" viewBox="0 0 1344 767.999994" height="1024" preserveAspectRatio="xMidYMid meet" version="1.0"><path fill="#ffffff" d="M 429.320312 388.378906 L 429.320312 327.851562 L 449.878906 327.851562 L 449.878906 418.355469 L 429.320312 418.355469 L 381.640625 358.117188 L 381.640625 418.355469 L 361.085938 418.355469 L 361.085938 327.851562 L 381.640625 327.851562 Z M 429.320312 388.378906 " fill-opacity="1" fill-rule="nonzero"/><path fill="#ffffff" d="M 568.074219 418.355469 L 489.847656 418.355469 L 489.847656 327.851562 L 568.074219 327.851562 L 568.074219 346.410156 L 510.6875 346.410156 L 510.6875 362.96875 L 564.363281 362.96875 L 564.363281 381.527344 L 510.6875 381.527344 L 510.6875 399.800781 L 568.074219 399.800781 Z M 568.074219 418.355469 " fill-opacity="1" fill-rule="nonzero"/><path fill="#ffffff" d="M 675.421875 329.28125 L 695.980469 329.28125 L 695.980469 377.246094 C 695.980469 406.652344 680.847656 421.496094 650.871094 421.496094 C 620.894531 421.496094 605.761719 406.652344 605.761719 377.246094 L 605.761719 329.28125 L 626.316406 329.28125 L 626.316406 377.246094 C 626.316406 394.945312 633.742188 402.941406 650.871094 402.941406 C 668 402.941406 675.421875 395.230469 675.421875 377.246094 Z M 675.421875 329.28125 " fill-opacity="1" fill-rule="nonzero"/><path fill="#ffffff" d="M 753.9375 400.941406 L 786.769531 400.941406 C 794.476562 400.941406 797.617188 398.085938 797.617188 390.949219 C 797.617188 383.8125 794.476562 380.957031 786.769531 380.957031 L 753.9375 380.957031 Z M 753.9375 345.269531 L 753.9375 363.542969 L 786.199219 363.542969 C 793.050781 363.542969 795.90625 360.972656 795.90625 354.40625 C 795.90625 347.839844 793.050781 345.269531 786.199219 345.269531 Z M 818.175781 392.375 C 818.175781 410.933594 809.894531 418.355469 789.339844 418.355469 L 733.09375 418.355469 L 733.09375 327.851562 L 788.195312 327.851562 C 809.324219 327.851562 816.175781 333.847656 816.175781 352.121094 C 816.175781 370.394531 810.75 369.535156 801.617188 371.25 C 812.464844 372.960938 818.175781 380.957031 818.175781 392.664062 Z M 818.175781 392.375 " fill-opacity="1" fill-rule="nonzero"/><path fill="#ffffff" d="M 856.144531 327.851562 L 876.703125 327.851562 L 876.703125 418.355469 L 856.144531 418.355469 Z M 856.144531 327.851562 " fill-opacity="1" fill-rule="nonzero"/><path fill="#ffffff" d="M 940.941406 346.410156 L 940.941406 367.253906 L 971.773438 367.253906 C 979.484375 367.253906 982.910156 364.113281 982.910156 356.6875 C 982.910156 349.265625 979.199219 346.125 971.773438 346.125 L 940.941406 346.125 Z M 1011.460938 418.355469 L 984.90625 418.355469 L 957.5 385.808594 L 941.226562 385.808594 L 941.226562 418.355469 L 920.667969 418.355469 L 920.667969 327.851562 L 975.199219 327.851562 C 994.898438 327.851562 1003.75 336.417969 1003.75 355.546875 C 1003.75 374.675781 996.898438 380.101562 981.480469 383.242188 L 1011.460938 418.070312 Z M 1011.460938 418.355469 " fill-opacity="1" fill-rule="nonzero"/><path fill="#ffffff" d="M 1062.5625 399.800781 L 1085.691406 399.800781 C 1103.960938 399.800781 1111.386719 392.089844 1111.386719 373.25 C 1111.386719 354.40625 1103.960938 346.695312 1085.691406 346.695312 L 1062.5625 346.695312 Z M 1085.691406 327.851562 C 1116.808594 327.851562 1131.941406 342.699219 1131.941406 373.25 C 1131.941406 403.796875 1116.808594 418.644531 1085.691406 418.644531 L 1041.722656 418.644531 L 1041.722656 328.140625 L 1085.691406 328.140625 Z M 1085.691406 327.851562 " fill-opacity="1" fill-rule="nonzero"/><path fill="#ffffff" d="M 1159.0625 419.214844 C 1165.914062 419.214844 1170.769531 414.359375 1170.769531 407.507812 C 1170.769531 400.65625 1165.914062 395.804688 1159.0625 395.804688 C 1152.210938 395.804688 1147.359375 400.65625 1147.359375 407.507812 C 1147.359375 414.359375 1152.210938 419.214844 1159.0625 419.214844 " fill-opacity="1" fill-rule="nonzero"/><path fill="#ffffff" d="M 1239.003906 348.410156 L 1251.851562 381.242188 L 1225.871094 381.242188 Z M 1267.269531 417.5 L 1289.824219 417.5 L 1249.851562 327.28125 L 1228.726562 327.28125 L 1188.757812 417.5 L 1210.453125 417.5 L 1218.449219 398.371094 L 1258.988281 398.371094 L 1266.984375 417.5 Z M 1267.269531 417.5 " fill-opacity="1" fill-rule="nonzero"/><path fill="#ffffff" d="M 1309.238281 327.28125 L 1329.792969 327.28125 L 1329.792969 417.5 L 1309.238281 417.5 Z M 1309.238281 327.28125 " fill-opacity="1" fill-rule="nonzero"/><path fill="#f2755f" d="M 125.046875 325.476562 C 151.355469 325.476562 172.753906 346.875 172.753906 373.183594 C 172.753906 383.835938 169.210938 393.652344 163.273438 401.589844 L 323.9375 401.589844 C 323.9375 354.515625 285.773438 316.347656 238.695312 316.347656 L 125.046875 316.347656 Z M 125.046875 325.476562 " fill-opacity="1" fill-rule="nonzero"/><path fill="#ffffff" d="M 145.574219 373.183594 C 145.574219 373.855469 145.542969 374.527344 145.476562 375.195312 C 145.410156 375.867188 145.3125 376.53125 145.179688 377.1875 C 145.050781 377.847656 144.886719 378.5 144.691406 379.144531 C 144.496094 379.785156 144.269531 380.417969 144.011719 381.039062 C 143.753906 381.660156 143.46875 382.269531 143.152344 382.859375 C 142.835938 383.453125 142.488281 384.03125 142.117188 384.589844 C 141.742188 385.148438 141.34375 385.6875 140.914062 386.207031 C 140.488281 386.726562 140.039062 387.222656 139.5625 387.699219 C 139.085938 388.175781 138.589844 388.625 138.070312 389.054688 C 137.550781 389.480469 137.011719 389.878906 136.453125 390.253906 C 135.890625 390.625 135.316406 390.972656 134.722656 391.289062 C 134.128906 391.605469 133.523438 391.894531 132.902344 392.148438 C 132.28125 392.40625 131.648438 392.632812 131.003906 392.828125 C 130.363281 393.023438 129.710938 393.1875 129.050781 393.316406 C 128.390625 393.449219 127.726562 393.546875 127.058594 393.613281 C 126.390625 393.679688 125.71875 393.710938 125.046875 393.710938 C 124.375 393.710938 123.703125 393.679688 123.035156 393.613281 C 122.363281 393.546875 121.699219 393.449219 121.042969 393.316406 C 120.382812 393.1875 119.730469 393.023438 119.085938 392.828125 C 118.445312 392.632812 117.8125 392.40625 117.191406 392.148438 C 116.570312 391.894531 115.960938 391.605469 115.371094 391.289062 C 114.777344 390.972656 114.199219 390.625 113.640625 390.253906 C 113.082031 389.878906 112.542969 389.480469 112.023438 389.054688 C 111.503906 388.625 111.007812 388.175781 110.53125 387.699219 C 110.054688 387.222656 109.605469 386.726562 109.175781 386.207031 C 108.75 385.6875 108.351562 385.148438 107.976562 384.589844 C 107.605469 384.03125 107.257812 383.453125 106.941406 382.859375 C 106.625 382.269531 106.335938 381.660156 106.082031 381.039062 C 105.824219 380.417969 105.597656 379.785156 105.402344 379.144531 C 105.207031 378.5 105.042969 377.847656 104.914062 377.1875 C 104.78125 376.53125 104.683594 375.867188 104.617188 375.195312 C 104.550781 374.527344 104.519531 373.855469 104.519531 373.183594 C 104.519531 372.511719 104.550781 371.839844 104.617188 371.171875 C 104.683594 370.503906 104.78125 369.839844 104.914062 369.179688 C 105.042969 368.519531 105.207031 367.867188 105.402344 367.226562 C 105.597656 366.582031 105.824219 365.949219 106.082031 365.328125 C 106.335938 364.707031 106.625 364.101562 106.941406 363.507812 C 107.257812 362.914062 107.605469 362.339844 107.976562 361.777344 C 108.351562 361.21875 108.75 360.679688 109.175781 360.160156 C 109.605469 359.640625 110.054688 359.144531 110.53125 358.667969 C 111.007812 358.191406 111.503906 357.742188 112.023438 357.316406 C 112.542969 356.890625 113.082031 356.488281 113.640625 356.113281 C 114.199219 355.742188 114.777344 355.394531 115.371094 355.078125 C 115.960938 354.761719 116.570312 354.476562 117.191406 354.21875 C 117.8125 353.960938 118.445312 353.734375 119.085938 353.539062 C 119.730469 353.34375 120.382812 353.179688 121.042969 353.050781 C 121.699219 352.917969 122.363281 352.820312 123.035156 352.753906 C 123.703125 352.6875 124.375 352.65625 125.046875 352.65625 C 125.71875 352.65625 126.390625 352.6875 127.058594 352.753906 C 127.726562 352.820312 128.390625 352.917969 129.050781 353.050781 C 129.710938 353.179688 130.363281 353.34375 131.003906 353.539062 C 131.648438 353.734375 132.28125 353.960938 132.902344 354.21875 C 133.523438 354.476562 134.128906 354.761719 134.722656 355.078125 C 135.316406 355.394531 135.890625 355.742188 136.453125 356.113281 C 137.011719 356.488281 137.550781 356.890625 138.070312 357.316406 C 138.589844 357.742188 139.085938 358.191406 139.5625 358.667969 C 140.039062 359.144531 140.488281 359.640625 140.914062 360.160156 C 141.34375 360.679688 141.742188 361.21875 142.117188 361.777344 C 142.488281 362.339844 142.835938 362.914062 143.152344 363.507812 C 143.46875 364.101562 143.753906 364.707031 144.011719 365.328125 C 144.269531 365.949219 144.496094 366.582031 144.691406 367.226562 C 144.886719 367.867188 145.050781 368.519531 145.179688 369.179688 C 145.3125 369.839844 145.410156 370.503906 145.476562 371.171875 C 145.542969 371.839844 145.574219 372.511719 145.574219 373.183594 Z M 145.574219 373.183594 " fill-opacity="1" fill-rule="nonzero"/><path fill="#ffffff" d="M 221.433594 401.589844 C 217.078125 416.339844 209.378906 429.664062 199.28125 440.75 C 197.558594 442.648438 194.609375 442.746094 192.808594 440.945312 L 177.625 425.761719 C 171.171875 419.308594 169.84375 409.332031 174.398438 401.414062 C 180.058594 391.554688 182.832031 379.816406 181.605469 367.382812 C 178.933594 340.421875 156.859375 318.765625 129.855469 316.566406 C 108.140625 314.785156 88.742188 325.257812 77.734375 341.789062 L 77.675781 341.746094 C 60.867188 367.957031 54.691406 393.375 54.59375 416.476562 C 54.570312 422.417969 61.699219 425.425781 65.894531 421.230469 L 94.460938 392.664062 C 89.75 385.257812 87.59375 376.09375 89.414062 366.355469 C 92.164062 351.605469 104.121094 339.867188 118.929688 337.414062 C 143.734375 333.316406 164.976562 354.554688 160.878906 379.359375 C 158.421875 394.148438 146.683594 406.105469 131.9375 408.875 C 122.195312 410.699219 113.03125 408.539062 105.625 403.828125 L 63.339844 446.113281 C 61.324219 448.132812 58.097656 448.113281 56.015625 446.152344 C 33.984375 425.289062 21.335938 394.582031 25.273438 361.128906 C 30.738281 314.667969 68.585938 277.707031 115.148438 273.214844 C 153.511719 269.511719 188.039062 287.546875 207.894531 316.410156 L 226.460938 316.410156 C 206.171875 280.339844 167.3125 256.128906 122.96875 256.921875 C 59.5625 258.03125 8.089844 311.023438 8.765625 374.429688 C 9.4375 437.976562 61.34375 489.46875 125.046875 489.46875 C 179.367188 489.46875 225.097656 452.03125 237.804688 401.589844 Z M 221.433594 401.589844 " fill-opacity="1" fill-rule="nonzero"/></svg>